{"title":"The Squad 2015 BDRip x264 AAC-SSN","uid":13141979,"size":1121347798,"categoryP":"video","categoryS":"movies","magnet":"?xt=urn:btih:3877a6943b9200ecde43c7efc21e5296ce4f9704&amp;dn=The+Squad+2015+BDRip+x264+AAC-SSN&amp;tr=udp%3A%2F%2Ftracker.leechers-paradise.org%3A6969&amp;tr=udp%3A%2F%2Fzer0day.ch%3A1337&amp;tr=udp%3A%2F%2Fopen.demonii.com%3A1337&amp;tr=udp%3A%2F%2Ftracker.coppersurfer.tk%3A6969&amp;tr=udp%3A%2F%2Fexodus.desync.com%3A6969","seeders":1,"leechers":0,"uploader":"somespirit","files":3,"time":1451989992,"description":"Cover:  http://lookpic.com/O/i2/1027/oLHs8el3.jpeg\r\n\r\n\r\n The Squad 2015 aka Antigang\r\n\r\n IMDB:  http://www.imdb.com/title/tt4232610/\r\n\r\n Source: Antigang 2015 1080p Blu-ray Remux AVC DTS-HD MA 5.1 - KRaLiMaRKo - 17.4 GB\r\n\r\n Country: French | UK\r\n Language: French\r\n Subtitles: English\r\n\r\n\r\n\r\n General\r\n Complete name                            : The Squad 2015 BDRip x264 AAC-SSN.mkv\r\n Format                                   : Matroska\r\n Format version                           : Version 4 / Version 2\r\n File size                                : 1.04 GiB\r\n Duration                                 : 1h 32mn\r\n Overall bit rate                         : 1 612 Kbps\r\n Encoded date                             : UTC 2016-01-05 08:41:56\r\n Writing application                      : mkvmerge v8.6.1 ('Flying') 64bit\r\n Writing library                          : libebml v1.3.3 + libmatroska v1.4.4\r\n\r\n Video\r\n ID                                       : 1\r\n Format                                   : AVC\r\n Format/Info                              : Advanced Video Codec\r\n Format profile                           :   \r\n Format settings, CABAC                   : Yes\r\n Format settings, ReFrames                : 5 frames\r\n Codec ID                                 : V_MPEG4/ISO/AVC\r\n Duration                                 : 1h 32mn\r\n Bit rate                                 : 1 282 Kbps\r\n Width                                    : 900 pixels\r\n Height                                   : 376 pixels\r\n Display aspect ratio                     : 2.40:1\r\n Frame rate mode                          : Constant\r\n Frame rate                               : 24.000 fps\r\n Color space                              : YUV\r\n Chroma subsampling                       : 4:2:0\r\n Bit depth                                : 8 bits\r\n Scan type                                : Progressive\r\n Bits/(Pixel*Frame)                       : 0.189\r\n Stream size                              : 849 MiB (79%)\r\n Writing library                          : x264 core 148 r2638 7599210\r\n Language                                 : French\r\n Default                                  : Yes\r\n Forced                                   : No\r\n\r\n Audio\r\n ID                                       : 2\r\n Format                                   : AAC\r\n Format/Info                              : Advanced Audio Codec\r\n Format profile                           : LC\r\n Codec ID                                 : A_AAC\r\n Duration                                 : 1h 32mn\r\n Bit rate                                 : 330 Kbps\r\n Channel(s)                               : 6 channels\r\n Channel positions                        : Front: L C R, Side: L R, LFE\r\n Sampling rate                            : 32.0 KHz\r\n Frame rate                               : 31.250 fps (1024 spf)\r\n Compression mode                         : Lossy\r\n Stream size                              : 219 MiB (20%)\r\n Language                                 : French\r\n Default                                  : Yes\r\n Forced                                   : No\r\n\r\n \nhttp://lookpic.com/O/i2/1753/7kof5Tec.png\r\n \nhttp://lookpic.com/O/i2/934/wTCJJqE7.png\r\n \nhttp://lookpic.com/O/i2/1608/V1ufFQ0H.png","torrent":{"xt":"urn:btih:3877a6943b9200ecde43c7efc21e5296ce4f9704","amp;dn":"The+Squad+2015+BDRip+x264+AAC-SSN","amp;tr":["udp%3A%2F%2Ftracker.leechers-paradise.org%3A6969","udp%3A%2F%2Fzer0day.ch%3A1337","udp%3A%2F%2Fopen.demonii.com%3A1337","udp%3A%2F%2Ftracker.coppersurfer.tk%3A6969","udp%3A%2F%2Fexodus.desync.com%3A6969"],"infoHash":"3877a6943b9200ecde43c7efc21e5296ce4f9704","infoHashBuffer":{"type":"Buffer","data":[56,119,166,148,59,146,0,236,222,67,199,239,194,30,82,150,206,79,151,4]},"announce":[],"urlList":[]}}